<?xml version="1.0" encoding="utf-8"?>
<!-- Generator: Adobe Illustrator 24.3.0, SVG Export Plug-In . SVG Version: 6.00 Build 0)  -->
<svg version="1.1" id="Layer_1" xmlns="http://www.w3.org/2000/svg" xmlns:xlink="http://www.w3.org/1999/xlink" x="0px" y="0px"
	 viewBox="0 0 48 34" style="enable-background:new 0 0 48 34;" xml:space="preserve">
<style type="text/css">
	.st0{fill:#444F55;}
</style>
<path class="st0" d="M6.9,9.4c2,0,3.6,1.7,3.6,3.6c0,0.2,0,0.6-0.1,0.8c0.5,0,0.8,0,0.8,0s10.2,0,18.1-0.1c0-0.2,0-0.4,0-0.6
	c0-2,1.7-3.6,3.6-3.6c2,0,3.6,1.7,3.6,3.6c0,0.1,0,0.2,0,0.4c1.1-0.1,1.8-0.1,1.9-0.2c0.6-0.7,0.2-6.6-0.4-7.7
	c-0.7-1.3-4.1-5-5.5-5.2c-6.2-1-13.7,0-15.9,0.6C14.4,1.6,10,5,9.9,5C7.8,5.3,2.7,7.1,2.7,7.1S0.4,7.7,0.3,9
	c-0.1,0.6-0.7,4.1,0.1,4.3c0.4,0,1.9,0.2,3,0.4c0-0.2,0-0.4,0-0.6C3.3,11.1,4.9,9.4,6.9,9.4z M23.7,1.1c0,0,4.9-0.1,5.9,0.1
	c2.6,1,3.5,4.2,3.5,4.2L23,5.8L23.7,1.1z M22.4,1.1c0,0.4-1,4.8-1,4.8L12,6.3C11.7,5.6,14.5,1.1,22.4,1.1z M9.9,13.1
	c0,0.2,0,0.5-0.1,0.7c0,0,0,0,0,0.1c-0.4,1.3-1.6,2.2-2.9,2.2c-1.4,0-2.6-1-3-2.4c0,0,0,0,0-0.1c0-0.2,0-0.4,0-0.6c0-1.7,1.3-3,3-3
	C8.6,10.1,9.9,11.4,9.9,13.1z M36.1,13.1c0,0.1,0,0.2,0,0.4c-0.1,1.6-1.4,2.6-3,2.6c-1.4,0-2.8-1.1-3-2.5c0-0.1,0-0.4,0-0.5
	c0-1.7,1.3-3,3-3C34.8,10.1,36.1,11.6,36.1,13.1z M47.8,26.6c-0.2-1.3-2.4-1.9-2.4-1.9s-4.8-1.8-7.2-2.2c0,0-4.2-3.2-6.5-3.8
	c-2-0.5-9.2-1.4-15.3-0.6c-1.3,0.1-4.6,3.8-5.3,5c-0.6,1.1-1,6.7-0.4,7.4c0.1,0.1,0.8,0.2,1.9,0.2c0-0.1,0-0.2,0-0.2
	c0-1.9,1.6-3.5,3.5-3.5c1.9,0,3.5,1.6,3.5,3.5c0,0.2,0,0.4,0,0.6c7.7,0.1,17.4,0.1,17.4,0.1s0.4,0,0.8,0c-0.1-0.2-0.1-0.5-0.1-0.8
	c0-1.9,1.6-3.5,3.5-3.5c1.9,0,3.5,1.6,3.5,3.5c0,0.2,0,0.4,0,0.6c1-0.1,2.4-0.2,2.9-0.2C48.4,30.5,47.8,27.2,47.8,26.6z M16.1,23.2
	c0,0,0.8-3.1,3.4-4.1c1-0.2,5.6-0.1,5.6-0.1l0.6,4.6L16.1,23.2z M36.4,23.9l-9.1-0.4c0,0-0.8-4.2-0.8-4.6
	C34.1,19,36.7,23.3,36.4,23.9z M44.2,30.6c0,0.2,0,0.4,0,0.6c0,0,0,0,0,0.1c-0.2,1.3-1.4,2.3-2.9,2.3c-1.3,0-2.4-0.8-2.8-2.2
	c0,0,0,0,0-0.1c0-0.2-0.1-0.5-0.1-0.7c0-1.6,1.3-2.9,2.9-2.9C42.8,27.7,44.2,28.9,44.2,30.6z M19.1,30.6c0,0.1,0,0.4,0,0.5
	c-0.2,1.3-1.4,2.4-2.9,2.4s-2.8-1.1-2.9-2.5c0-0.1,0-0.2,0-0.2c0-1.6,1.3-2.9,2.9-2.9C17.7,27.7,19.1,28.9,19.1,30.6z"/>
</svg>
