<?xml version="1.0" encoding="utf-8"?>
<!-- Generator: Adobe Illustrator 24.3.0, SVG Export Plug-In . SVG Version: 6.00 Build 0)  -->
<svg version="1.1" id="Layer_1" xmlns="http://www.w3.org/2000/svg" xmlns:xlink="http://www.w3.org/1999/xlink" x="0px" y="0px"
	 viewBox="0 0 48 31" style="enable-background:new 0 0 48 31;" xml:space="preserve">
<style type="text/css">
	.st0{fill:#444F55;}
</style>
<path class="st0" d="M47.2,8.2H44l-2-6.4C41.3-0.1,40.6,0,38.5,0H25.4c-2.4,0-2.6,0-3.2,1.8l-1,2.5H9.5c-2.4,0-2.6,0-3.2,1.8L4,12.5
	H0.6C0,12.6,0,12.9,0,13.4v0.7c0,0.5,0,0.7,0.5,0.7h1.2c0,0-0.8,1.7-1.1,2.7c-0.2,1.1-0.1,12-0.1,12c0,0.8,0,1.4,0.8,1.4H5
	c1,0,1-0.6,1-1.3v-3h11c0.1,0,0.1,0,0.2,0H21c0.1,0,0.2,0,0.2,0h4.6v3c0,0.8,0.1,1.3,1,1.3h3.7c0.8,0,0.8-0.6,0.8-1.4
	c0,0,0-3.9,0-7.4H42v3c0,0.8,0.1,1.3,1,1.3h3.7c0.8,0,0.8-0.6,0.8-1.4c0,0,0-10.5,0-11.9c0-1.1-1.3-2.9-1.3-2.9h1.2
	c0.5,0,0.6-0.1,0.6-0.5V8.7C48,8.2,47.6,8.2,47.2,8.2z M7,23.8c-1.3,0-2.3-1-2.3-2.1c0-1.2,1.1-2.1,2.3-2.1c1.3,0,2.3,1,2.3,2.1
	C9.4,22.9,8.3,23.8,7,23.8z M8.4,14.1c-1.1,0-2.4,0.1-2.5-1l2.3-6.6h15.7l2.2,6.6c-0.1,1.1-1.4,1-2.5,1H8.4z M25,23.8
	c-1.3,0-2.3-1-2.3-2.1c0-1.2,1.1-2.1,2.3-2.1c1.3,0,2.3,1,2.3,2.1C27.2,22.9,26.2,23.8,25,23.8z M27.1,9.8l-1.2-3.6
	c-0.5-1.5-1.1-1.8-2.5-1.8l0.7-2h15.7L42,8.8c-0.1,1.1-1.4,1-2.5,1H27.1z M40.9,19.6c-1.3,0-2.3-1-2.3-2.1c0-1.2,1.1-2.1,2.3-2.1
	c1.3,0,2.3,1,2.3,2.1C43.2,18.6,42.2,19.6,40.9,19.6z"/>
</svg>
