<?xml version="1.0" encoding="utf-8"?>
<!-- Generator: Adobe Illustrator 24.3.0, SVG Export Plug-In . SVG Version: 6.00 Build 0)  -->
<svg version="1.1" id="Layer_1" xmlns="http://www.w3.org/2000/svg" xmlns:xlink="http://www.w3.org/1999/xlink" x="0px" y="0px"
	 viewBox="0 0 48 35" style="enable-background:new 0 0 48 35;" xml:space="preserve">
<style type="text/css">
	.st0{fill-rule:evenodd;clip-rule:evenodd;fill:#444F55;}
</style>
<path class="st0" d="M29.1,5.2h17.4v25h-8.7h-8.6V5.2z M37.7,33.8c-0.8,0-1.4-0.6-1.4-1.4c0-0.8,0.6-1.4,1.4-1.4
	c0.8,0,1.4,0.6,1.4,1.4C39.2,33.2,38.5,33.8,37.7,33.8z M34.7,1.9c0-0.1,0.1-0.2,0.2-0.2h5.7c0.1,0,0.2,0.1,0.2,0.2v0.6
	c0,0.1-0.1,0.2-0.2,0.2H35c-0.1,0-0.2-0.1-0.2-0.2V1.9z M27.5,33.8c0,0.7,0.5,1.2,1.2,1.2h9.1h9.1c0.7,0,1.2-0.5,1.2-1.2V5.2v-4
	C48,0.5,47.5,0,46.8,0H28.7c-0.7,0-1.2,0.5-1.2,1.2V33.8z"/>
<path class="st0" d="M0,9.6v17.6c0,1.6,1.4,1.2,1.4,1.2h24.5v-12L16.9,24L0,9.6z"/>
<path class="st0" d="M15.3,6.6H1.9c-1.6,0-1.4,1-1.4,1l16.4,14l0,0l0,0l8.9-7.6V6.6h-7.3H15.3z"/>
</svg>
