<svg width="40" height="38" viewBox="0 0 40 38" fill="none" xmlns="http://www.w3.org/2000/svg">
<path d="M26.3965 17.9012C27.0954 19.0001 26.9956 20.2988 26.097 21.2978L17.3112 31.6872C15.2146 34.1847 12.3193 35.883 9.22431 36.7821L7.42721 37.2816L4.83141 37.9809C4.33222 38.0808 3.83303 37.7811 3.63335 37.2816L0.0391671 23.3957C-0.0606714 23.096 0.0391671 22.6964 0.238844 22.3967L5.53028 15.7035C6.32899 14.7045 7.42721 14.0052 8.62528 13.7055C8.82495 13.6056 9.02463 13.6056 9.22431 13.6056L11.4208 21.7973C11.5206 22.2968 11.8201 22.7963 12.3193 23.096C13.118 23.5955 14.0166 23.5955 14.8153 23.096L22.7025 17.2019C23.002 17.0021 23.3015 16.9022 23.601 16.8023C24.5994 16.6025 25.6977 17.0021 26.3965 17.9012ZM39.4754 18.3008L28.2935 21.2978C28.8925 19.8992 28.7926 18.2009 27.8941 16.8023C27.7943 16.6025 27.5946 16.4027 27.3949 16.2029L36.4802 13.8054L36.0809 12.0072L25.9972 14.8044L26.097 15.3039C25.1985 14.9043 24.1002 14.8044 23.002 15.0042C22.403 15.1041 21.9038 15.4038 21.5044 15.7035L13.5174 21.5975C13.4175 21.5975 13.3177 21.6974 13.3177 21.5975L9.62366 7.51176C9.52382 7.11217 9.82334 6.61268 10.2227 6.51278L34.6831 0.0193618C35.0825 -0.0805368 35.382 0.219159 35.4818 0.618754L39.9746 17.5016C40.0744 17.9012 39.8747 18.2009 39.4754 18.3008ZM24.4996 9.21004L34.6831 6.51278L34.2838 4.9144L24.1002 7.61166L24.4996 9.21004ZM35.5817 10.209L35.0825 8.41085L24.9988 11.1081L25.498 12.9063L35.5817 10.209Z" fill="#444F55"/>
</svg>
