<svg width="40" height="31" viewBox="0 0 40 31" fill="none" xmlns="http://www.w3.org/2000/svg">
<path d="M40 9.9L37.8 11.2L37.3 13.7L34.7 13.5L32.8 15.2L30.9 13.5L28.3 13.8L27.7 11.3L25.5 10L26.5 7.6L25.4 5.3L27.7 4L28.2 1.5L30.8 1.7L32.7 0L34.6 1.7L37.2 1.4L37.8 3.9L40 5.2L39 7.6L40 9.9ZM27.2 15.9L28.6 15.8V30.3C28.6 30.7 28.3 31 27.9 31H0.8C0.4 31 0 30.7 0 30.3V11.8C0 11.4 0.4 11 0.8 11H23.6L26.5 12.6L27.2 15.9ZM4.7 18.1C4.7 19.3 5.7 20.3 6.9 20.3C8.1 20.3 9.1 19.3 9.1 18.1C9.1 16.9 8.1 15.9 6.9 15.9C5.7 15.9 4.7 16.9 4.7 18.1ZM11.2 26.1C11.2 21.7 8.7 20.9 6.9 20.9C5.2 20.9 2.5 21.6 2.5 26.1H11.2ZM25.4 24.2H14.2V26.1H25.4V24.2ZM25.4 20.2H14.2V22.1H25.4V20.2ZM25.4 16.4H14.2V18.2H25.4V16.4ZM32.8 17.4L30.8 15.6H30.4V22.1L32.8 20.1L35.2 22.1V15.6H34.8L32.8 17.4Z" fill="#444F55"/>
</svg>
