<?xml version="1.0" encoding="utf-8"?>
<!-- Generator: Adobe Illustrator 24.3.0, SVG Export Plug-In . SVG Version: 6.00 Build 0)  -->
<svg version="1.1" id="Layer_1" xmlns="http://www.w3.org/2000/svg" xmlns:xlink="http://www.w3.org/1999/xlink" x="0px" y="0px"
	 viewBox="0 0 48 36" style="enable-background:new 0 0 48 36;" xml:space="preserve">
<style type="text/css">
	.st0{fill-rule:evenodd;clip-rule:evenodd;fill:#444F55;}
</style>
<path class="st0" d="M38.5,12.8l-1.2,1.8l1.7,8.9l-2.1,2.2l-2.1-2.3l1.6-8.9l-1.2-1.7c-1.7,0.2-3.4,0.8-5,1.9
	c-0.3,2.1-1.6,3.9-3.4,4.8c-0.1,0.3-0.2,0.7-0.3,1.1c2.7,0.5,5.8,1.9,7.6,5.7h2.8H48C48,15.8,42.8,13.2,38.5,12.8z"/>
<path class="st0" d="M36.9,11.3c3.1,0,5.6-2.5,5.6-5.6C42.5,2.5,40,0,36.9,0c-3.1,0-5.6,2.5-5.6,5.6C31.3,8.7,33.8,11.3,36.9,11.3z"
	/>
<path class="st0" d="M26.3,21.4c-0.7-0.1-1.4-0.1-2.1-0.1c-0.5,0-1.1,0-1.6,0.1c-0.2,0-0.3,0-0.5,0.1c-0.1,0-0.3,0-0.4,0.1
	c-2.6,0.5-5.4,1.8-7.1,5.3c0,0.1-0.1,0.2-0.1,0.2c-0.1,0.2-0.1,0.3-0.2,0.5C13.5,29.3,13,33,13,36h22c0-3.7-0.7-7.8-1.7-9.7
	C31.6,23,28.8,21.8,26.3,21.4z"/>
<path class="st0" d="M15.2,10.9v0.9c0,0,1.1,0.1,2.8,0.2c0.2,0,0.5,0,0.8,0c0.6,0,1.4,0.1,2.1,0.1c0.5,0,1,0,1.6,0
	c0.5,0,1.1,0,1.6,0c0.5,0,1.1,0,1.6,0c0.5,0,1.1,0,1.6,0c0.5,0,1,0,1.5,0c0.2,0,0.4,0,0.5,0c0.3,0,0.6,0,0.8,0
	c1.6-0.1,2.8-0.2,2.8-0.2v-0.9c0,0-0.9-0.1-2.2-0.2c-0.3-2.6-1.9-4.6-4.1-5.5l0,0.3l-0.4,3c0,0.5-0.5,1.5-2.2,1.5
	c-1.6,0-2.1-1-2.2-1.5l-0.4-3l0-0.3c-2.2,0.9-3.8,2.9-4.1,5.5C16,10.8,15.2,10.9,15.2,10.9z"/>
<path class="st0" d="M18.6,13.4c0,0.2-0.1,0.2-0.1,0.5c0,0.3,0,0.5,0.1,0.8c0,0.2,0.1,0.4,0.1,0.6c0.1,0.3,0.2,0.6,0.3,0.9
	c0.3,0.7,0.8,1.4,1.4,1.9c0.2,0.2,0.5,0.4,0.7,0.6c0.2,0.1,0.4,0.2,0.6,0.3c0.7,0.3,1.5,0.5,2.3,0.5c1.2,0,2.3-0.4,3.2-1
	c1-0.7,1.7-1.7,2.1-3c0.1-0.5,0.2-1,0.2-1.6c0-0.3,0-0.6-0.1-0.6H18.6z"/>
<path class="st0" d="M24,9.4L24,9.4c1.4,0,1.4-0.9,1.4-0.9l0.4-3c0,0-0.6-0.4-1.7-0.4c-0.5,0-1.2,0.1-2,0.4l0.4,3
	C22.6,8.5,22.6,9.4,24,9.4z"/>
<path class="st0" d="M16.4,23c1.6-1.3,3.4-2,5-2.3c-0.1-0.4-0.3-0.9-0.4-1.2c-1.6-0.9-2.7-2.4-3.1-4.2c-2.1-1.6-4.6-2-6.7-2
	C6.8,13.2,0,14.9,0,26.8h13.6C14.3,25.3,15.2,24,16.4,23z"/>
<path class="st0" d="M11.1,11.3c3,0,5.5-2.5,5.5-5.6c0-3.1-2.5-5.5-5.5-5.5c-3,0-5.5,2.5-5.5,5.5C5.6,8.8,8.1,11.3,11.1,11.3z"/>
</svg>
