<?xml version="1.0" encoding="utf-8"?>
<!-- Generator: Adobe Illustrator 24.3.0, SVG Export Plug-In . SVG Version: 6.00 Build 0)  -->
<svg version="1.1" id="Layer_1" xmlns="http://www.w3.org/2000/svg" xmlns:xlink="http://www.w3.org/1999/xlink" x="0px" y="0px"
	 viewBox="0 0 48 40" style="enable-background:new 0 0 48 40;" xml:space="preserve">
<style type="text/css">
	.st0{fill:#444F55;}
</style>
<path class="st0" d="M47.6,29.3c-0.4-0.2-0.7-0.4-1.1-0.6c-3.7-1.9-7.6-3.8-11.3-5.7C35,22.9,35,22.8,35,22.5
	c0.6-3.3,0.1-6.4-1.4-9.3c-3.2-5.8-10-8.6-16.3-6.5c-0.7,0.2-1.3,0.6-2,0.8c-2.9,1.6-5,3.8-6.4,6.9c-1.7,4.1-1.4,8.2,0.6,12.2
	c1.6,2.9,3.8,5,6.7,6.2c2.8,1.2,5.8,1.5,8.7,0.7c2.6-0.7,4.9-2.1,6.7-4.1c0.1-0.1,0.2-0.2,0.5-0.1c2,1.1,4.2,2.2,6.2,3.3
	c1.9,1,4,2.1,5.9,3c0.5,0.2,0.8,0.2,1.2-0.2c0.2-0.2,0.4-0.5,0.5-0.7c0.6-1.1,1.1-2.3,1.7-3.4c0.1-0.2,0.2-0.6,0.4-1
	C48.2,29.9,47.9,29.6,47.6,29.3z M26.4,29c-0.6,0.4-1.2,0.6-1.8,0.8c-4.7,1.5-9.6-0.4-12-4.6c-1.8-3-1.9-6.2-0.5-9.5
	c1-2.2,2.6-3.9,4.8-5c5.2-2.5,10.8-0.6,13.5,3.8C33.3,19.6,31.6,26.2,26.4,29z M22.5,19h4.3V21h-4.3v4.4h-2V21h-4.3V19h4.3v-4.4h1.9
	V19H22.5z M26.2,34.7c0.8-0.4,1.6-0.7,2.4-1.1v5.2c0,0.7-0.5,1.2-1.2,1.2H1.2C0.5,40,0,39.5,0,38.8V1.2C0,0.5,0.5,0,1.2,0h26.2
	c0.7,0,1.2,0.6,1.2,1.2v5c-4.1-2.2-9.1-2.4-13.9,0c-3.2,1.6-5.6,4.1-7.1,7.4c-2.2,4.8-1.9,9.6,0.6,14.1C11.9,34.2,19.2,37,26.2,34.7
	z"/>
</svg>
