<?xml version="1.0" encoding="utf-8"?>
<!-- Generator: Adobe Illustrator 24.3.0, SVG Export Plug-In . SVG Version: 6.00 Build 0)  -->
<svg version="1.1" id="Layer_1" xmlns="http://www.w3.org/2000/svg" xmlns:xlink="http://www.w3.org/1999/xlink" x="0px" y="0px"
	 viewBox="0 0 36 40" style="enable-background:new 0 0 36 40;" xml:space="preserve">
<style type="text/css">
	.st0{fill-rule:evenodd;clip-rule:evenodd;fill:#444F55;}
</style>
<path class="st0" d="M18.2,12.8c-1.7,0-3-0.8-3-2.5c0-1.7,1.3-2.5,3-2.5c1.7,0,3,0.9,3,2.5C21.2,12,20,12.8,18.2,12.8z M15.3,28.4
	h5.8V13.9h-5.8V28.4z M18,0C8.1,0,0,8,0,18c0,7.2,4.3,13.5,10.5,16.3c-0.8,5-7.3,5.5-7.3,5.5C17.1,41.1,36,35,36,18
	C36,8,27.9,0,18,0z"/>
</svg>
