<?xml version="1.0" encoding="utf-8"?>
<!-- Generator: Adobe Illustrator 24.3.0, SVG Export Plug-In . SVG Version: 6.00 Build 0)  -->
<svg version="1.1" id="Layer_1" xmlns="http://www.w3.org/2000/svg" xmlns:xlink="http://www.w3.org/1999/xlink" x="0px" y="0px"
	 viewBox="0 0 48 35" style="enable-background:new 0 0 48 35;" xml:space="preserve">
<style type="text/css">
	.st0{fill:#444F55;}
</style>
<path class="st0" d="M47.9,21.7c-2-3.6-6.4-5.6-10.6-4.2c-1.2,0.4-2.2,1-3,1.7l-25-7.4c0.1-0.6,0.1-1.2,0-1.7c2.6,0.4,9.4,1,10.8,1
	c0,0,3,0.4,3.2-1.9c0,0,0.1-0.5,0.1-1.4l12,0.2l0.1-1.2L23.5,6.6c0-1.2,0-2.4-0.4-4.2c0,0-0.5-2.5-2.9-2.4c0,0-8.8,0.2-11.6,1
	c0,0-1.4,0.1-1.8,1.8c0,0-0.1,1.9-0.2,3.6V8c0,0.4,0,0.6,0.1,0.6c0,0,0.2,0.8,1.4,1.3c0.1,0.5,0.2,1.1,0.1,1.6
	C6,11,3.7,12.1,2.8,14.1C2.6,14,2.5,14,2.4,13.9l-0.1-0.1c-0.8-0.8-1.3-2.1-1.1-3.3c0.1-1,0.7-1.8,1.4-2.3c0.8-0.6,1.7-0.7,2.6-0.6
	c0.1,0,0.2,0,0.4,0.1V6.5H5.5C3,6,0.5,7.7,0,10.4c0,0.4,0,1,0.1,1.6C0.4,13,0.8,14,1.7,14.7c0.1,0,0.1,0.1,0.2,0.1L2,15
	c0.1,0.1,0.2,0.1,0.4,0.2c-0.6,2.5,0.8,5.2,3.4,5.9l25.9,7.6c1.4,4.5,6,7.1,10.6,6c0.7-0.2,1.4-0.5,2.2-0.8c0.7-0.4,0.6-1.4-0.1-1.7
	l-5-1.6l-1.4-5.3l4.1-3.9l4.9,1.4C47.7,23.2,48.3,22.4,47.9,21.7z M21.6,7.7c0.6,0,1,0.6,1,1.2c-0.1,0.6-0.6,1-1.2,1
	c-0.6,0-1-0.6-1-1.2C20.5,8.1,21,7.7,21.6,7.7z M7.7,15c0,0.1,0,0.1-0.1,0.2c-0.1,0.4-0.4,0.8-0.5,1.3c-0.5,1.6-0.6,2.7-1.2,2.4
	c-1.4-0.4-2.3-1.8-2-3.3c0.8,0.1,1.7,0,2.4-0.2l0.5-1v-0.1c0,0,0-0.1-0.4-0.1c-0.6,0.4-1.3,0.5-2,0.5c0.6-1,1.7-1.4,2.8-1.3
	c0.1,0,0.2,0,0.2,0s0,0,0.1,0s0.1,0,0.2,0.1C8,13.6,7.9,14.1,7.7,15z"/>
</svg>
