<svg width="40" height="38" viewBox="0 0 40 38" fill="none" xmlns="http://www.w3.org/2000/svg">
<path d="M3.2 8.90638V15.005C3.2 15.5049 2.8 15.5049 2.3 15.5049H1C0.5 15.5049 0 15.5049 0 15.105V8.90638C0 8.40649 0.5 8.50647 1 8.50647H2.4C2.8 8.50647 3.2 8.40649 3.2 8.90638ZM15.4 10.806C15.4 10.806 15.4 13.8053 15.4 14.0053C15.4 16.6047 17.4 18.7042 19.9 18.7042C22.4 18.7042 24.5 16.6047 24.5 14.0053C24.5 13.9053 24.5 13.7053 24.5 13.6053V10.806L20 12.6056L15.4 10.806ZM34.4 2.80772L35.6 22.5034V30.2017C35.6 31.5014 33.4 32.9011 33.4 32.9011V36.6003C33.4 37.7001 32.4 37.9 31.3 37.9H28.2C27 38 26 37.9 26 36.8003V34.0009H13.5V36.7003C13.5 37.8 12.7 38 11.6 38H8.5C7.4 38 6.5 37.9 6.5 36.8003V32.6012C6.5 32.6012 4.5 31.2015 4.5 30.2017V22.5034L5.5 2.60776C5.9 -0.191625 6.4 0.0083315 10.4 0.0083315H29.5C33.6 0.0083315 34 -0.291603 34.4 2.70774V2.80772ZM14.5 27.5023C14.5 26.1026 13.4 25.0028 12 25.0028C10.6 25.0028 9.5 26.1026 9.5 27.5023C9.5 28.902 10.6 30.0018 12 30.0018C13.4 30.0018 14.5 28.902 14.5 27.5023ZM30.5 27.5023C30.5 26.1026 29.4 25.0028 28 25.0028C26.6 25.0028 25.5 26.1026 25.5 27.5023C25.5 28.902 26.6 30.0018 28 30.0018C29.4 30.0018 30.5 28.902 30.5 27.5023ZM33.3 21.3037C33.3 21.3037 32.6 3.00767 32.5 2.70774H7.6C7.6 3.00767 6.8 21.3037 6.8 21.3037H33.3ZM39 8.50647H37.6C37.1 8.50647 36.8 8.40649 36.8 8.90638V15.105C36.8 15.6049 37.1 15.5049 37.6 15.5049H39C39.5 15.5049 40 15.5049 40 15.005V8.90638C40 8.40649 39.5 8.50647 39 8.50647ZM12.5 7.9066L20.1 10.806L25.6 8.60645V13.7053L26.4 12.9055L27.2 13.7053V8.00658L27.6 7.9066L20 5.50713L12.5 7.9066Z" fill="#444F55"/>
</svg>
