<?xml version="1.0" encoding="utf-8"?>
<!-- Generator: Adobe Illustrator 24.3.0, SVG Export Plug-In . SVG Version: 6.00 Build 0)  -->
<svg version="1.1" id="Layer_1" xmlns="http://www.w3.org/2000/svg" xmlns:xlink="http://www.w3.org/1999/xlink" x="0px" y="0px"
	 viewBox="0 0 40 40" style="enable-background:new 0 0 40 40;" xml:space="preserve">
<style type="text/css">
	.st0{fill:#444F55;}
</style>
<path class="st0" d="M39.5,38.7c-0.3,0.3-0.8,0.5-1.3,0.5c-0.5,0-0.9-0.2-1.2-0.5c-0.7-0.8-0.6-2.2-0.6-2.5v-36l1.2,0.7v35.3
	c0,0.4,0,1.3,0.3,1.6c0.1,0.1,0.1,0.1,0.3,0.1c0.1,0,0.3,0,0.4-0.1c0.2-0.2,0.1-0.8,0.1-1.2c0-0.2,0-0.3,0-0.5V1.3L40,2v34.1
	c0,0.1,0,0.3,0,0.4C40,37.2,40.1,38.1,39.5,38.7z M36.7,40c-8.2,0-34,0-34,0C-0.4,40,0,36.6,0,36.3C0,35.9,0,1.7,0,1
	c0-1,1.1-1,1.2-1h33.9c0,0,0,32,0,35.9c0,0.1,0,2.1,0.6,3c0.1,0.1,0.4,0.5,0.9,0.6C37.4,40,37,40,36.7,40z M30.6,19.3H4.1v2.5h26.6
	L30.6,19.3L30.6,19.3z M30.6,6.2H4.1v10.3h26.6L30.6,6.2L30.6,6.2z"/>
</svg>
