<?xml version="1.0" encoding="utf-8"?>
<!-- Generator: Adobe Illustrator 24.3.0, SVG Export Plug-In . SVG Version: 6.00 Build 0)  -->
<svg version="1.1" id="Layer_1" xmlns="http://www.w3.org/2000/svg" xmlns:xlink="http://www.w3.org/1999/xlink" x="0px" y="0px"
	 viewBox="0 0 48 34" style="enable-background:new 0 0 48 34;" xml:space="preserve">
<style type="text/css">
	.st0{fill-rule:evenodd;clip-rule:evenodd;fill:#444F55;}
</style>
<path class="st0" d="M6.9,27.1h1.5v-4.1h6.9L7.7,5.8L0,22.9h6.9V27.1z"/>
<path class="st0" d="M34.9,7h5.3v-1h-5.3V7z M34.9,5.1h8.6v-1h-8.6V5.1z M34.9,3.2h6.2v-1h-6.2V3.2z M38.9,16.1h1V8.9h5.9V0H33.1
	v8.9h5.9V16.1z"/>
<path class="st0" d="M25.9,30.1l0.2-5.3h2.2l0.2,5.3H25.9z M26.5,17.2H28l0.2,4.1h-1.9L26.5,17.2z M26.7,12.7h1.1l0.1,2.5h-1.3
	L26.7,12.7z M33.1,11.3H21.4l-5.7,8.8l1,2.3l0.9,2h-2.2h-2.5L6.5,34H48L33.1,11.3z"/>
</svg>
