<?xml version="1.0" encoding="utf-8"?>
<!-- Generator: Adobe Illustrator 24.3.0, SVG Export Plug-In . SVG Version: 6.00 Build 0)  -->
<svg version="1.1" id="Layer_1" xmlns="http://www.w3.org/2000/svg" xmlns:xlink="http://www.w3.org/1999/xlink" x="0px" y="0px"
	 viewBox="0 0 48 36" style="enable-background:new 0 0 48 36;" xml:space="preserve">
<style type="text/css">
	.st0{fill-rule:evenodd;clip-rule:evenodd;fill:#444F55;}
</style>
<path class="st0" d="M24.6,21l-3.3-4.4l3-2.3l3.3,4.4L24.6,21z M34.5,16.8l-0.2,0.1l-0.4,0.3l-0.3-0.3l-0.2-0.3l-1.2-1.5L27.6,9
	l-0.5-0.6L27.7,8l1.6-1.2l-0.7-0.8l-4.3,3.4l-0.9,3.4l0,0l-3.9,3.1c-0.2,0.2-0.2,0.5-0.1,0.7l4.8,6.3c0.1,0.1,0.2,0.2,0.4,0.2
	c0.1,0,0.2,0,0.3-0.1l3.9-3.1l0,0l3.4,0l3.7-2.9l0.7-0.5l-0.6-0.8L34.5,16.8z"/>
<path class="st0" d="M32.3,14l1.7,2.3l1.6-1.2l0.3-0.2l0.3-0.2l8.3-6.5L48,5.3V0h-8.8l-8.8,6.9L30,7.1l-0.3,0.2l-1.6,1.2L32.3,14z"
	/>
<path class="st0" d="M22.6,25.1l-0.3,0.3c-0.1,0.1-0.3,0.1-0.4-0.1l-5.5-7.2c-0.1-0.1-0.1-0.3,0.1-0.4l0.3-0.3
	c0.1-0.1,0.3-0.1,0.4,0.1l5.5,7.2C22.8,24.9,22.7,25,22.6,25.1L22.6,25.1z M14.7,30.5l-5-6.5l4.1-3.2l5,6.5L14.7,30.5z M17.4,16.6
	c-0.2-0.3-0.6-0.5-1-0.5c-0.3,0-0.5,0.1-0.7,0.3l-7.5,5.9C7.6,22.7,7.5,23.4,8,24l6.3,8.2c0.2,0.3,0.6,0.5,1,0.5
	c0.3,0,0.5-0.1,0.7-0.3l7.5-5.9c0.5-0.4,0.6-1.2,0.2-1.7L17.4,16.6z"/>
<path class="st0" d="M0,30.6V36h8.7l4.5-3.5l-5.9-7.6L0,30.6z"/>
</svg>
