<?xml version="1.0" encoding="utf-8"?>
<!-- Generator: Adobe Illustrator 24.3.0, SVG Export Plug-In . SVG Version: 6.00 Build 0)  -->
<svg version="1.1" id="Layer_1" xmlns="http://www.w3.org/2000/svg" xmlns:xlink="http://www.w3.org/1999/xlink" x="0px" y="0px"
	 viewBox="0 0 48 30" style="enable-background:new 0 0 48 30;" xml:space="preserve">
<style type="text/css">
	.st0{fill:#444F55;}
</style>
<path class="st0" d="M25.9,16.3l3.6-1.9c0-0.8-0.1-1.8-0.4-2.7l-3.8-0.6c-0.4-1-0.8-1.9-1.4-2.8l1.6-3.9c-0.6-0.6-1.1-1.1-1.8-1.6
	l-3.2,2.2c-1-0.6-2-1-3.2-1.2L16,0c-0.4,0-0.7,0-1.1,0s-0.7,0-1.1,0l-1.2,3.9c-1.2,0.2-2.2,0.7-3.2,1.2L5.9,2.9
	c-0.6,0.5-1.2,1-1.8,1.6l1.6,3.9c-0.6,1-1.1,1.8-1.4,2.9l-3.8,0.5C0.1,12.6,0,13.4,0,14.4l3.6,1.9c0.1,0.8,0.2,1.7,0.6,2.5l-2.6,3
	c0.5,0.8,1,1.7,1.6,2.4l4.1-0.8c0.5,0.5,1.1,1,1.6,1.3l-0.2,4.1c0.8,0.5,1.8,0.7,2.9,1l2.5-3.3c0.4,0,0.6,0,1,0s0.6,0,1,0l2.5,3.3
	c1-0.2,1.9-0.6,2.9-1l-0.1-4.1c0.6-0.4,1.1-0.8,1.6-1.3l4.1,0.8c0.6-0.7,1.1-1.6,1.6-2.4l-2.6-3C25.7,18.2,25.9,17.3,25.9,16.3z
	 M14.5,17.8c-1.4,0-2.6-1.2-2.6-2.8c0-1.6,1.2-2.8,2.6-2.8s2.6,1.2,2.6,2.8C17.2,16.6,16.1,17.8,14.5,17.8z M46.1,19.4L48,18
	c-0.1-0.5-0.1-1-0.2-1.5l-2.2-0.4c-0.6-1.6-1.7-3-3.1-4.1l0.1-2.3c-0.2-0.1-0.5-0.2-0.6-0.2c-0.2-0.1-0.4-0.1-0.6-0.2l-1.6,1.6
	c-1.7-0.5-3.5-0.4-5,0.2l-1.7-1.6c-0.5,0.2-0.8,0.5-1.3,0.7l0.2,2.4c-0.8,0.8-1.7,1.8-2.2,2.9c-0.1,0.2-0.2,0.5-0.2,0.7l-2.3,0.5
	c-0.1,0.6-0.2,1.3-0.2,1.9l2,1.3c0.1,1.2,0.5,2.3,1,3.4L29,25.6c0.5,0.6,1,1.2,1.4,1.7l2.3-0.7c0.4,0.2,0.8,0.6,1.3,0.7
	c0.5,0.2,1,0.4,1.4,0.5l1,2.2c0.7,0.1,1.6,0.1,2.3,0l0.8-2.2c1.1-0.2,2.2-0.7,3.1-1.5L45,27c0.5-0.5,0.8-1,1.2-1.5l-1.1-1.9
	c0.1-0.2,0.2-0.5,0.4-0.7C45.8,21.8,46.1,20.6,46.1,19.4z M37.6,22c-1.4,0-2.6-1.2-2.6-2.8c0-1.6,1.2-2.8,2.6-2.8
	c1.4,0,2.6,1.2,2.6,2.8C40.2,20.8,39,22,37.6,22z"/>
</svg>
