<?xml version="1.0" encoding="utf-8"?>
<!-- Generator: Adobe Illustrator 24.3.0, SVG Export Plug-In . SVG Version: 6.00 Build 0)  -->
<svg version="1.1" id="Layer_1" xmlns="http://www.w3.org/2000/svg" xmlns:xlink="http://www.w3.org/1999/xlink" x="0px" y="0px"
	 viewBox="0 0 48 34" style="enable-background:new 0 0 48 34;" xml:space="preserve">
<style type="text/css">
	.st0{fill-rule:evenodd;clip-rule:evenodd;fill:#444F55;}
</style>
<path class="st0" d="M19.5,28.1c-1.6,0-2.9,1.3-2.9,3c0,1.6,1.3,3,2.9,3s2.9-1.3,2.9-3C22.4,29.4,21.1,28.1,19.5,28.1"/>
<path class="st0" d="M10.2,28.1c-1.6,0-2.9,1.3-2.9,3c0,1.6,1.3,3,2.9,3c1.6,0,2.9-1.3,2.9-3C13.1,29.4,11.8,28.1,10.2,28.1"/>
<path class="st0" d="M31,23l0-22c0-0.5-0.3-1-0.7-1H0.7C0.3,0,0,0.3,0,0.8V23c0,0.5,0.3,1,0.7,1h29.5C30.6,24,31,23.5,31,23"/>
<path class="st0" d="M40.4,28.1c-1.6,0-2.9,1.3-2.9,3c0,1.6,1.3,3,2.9,3c1.6,0,2.9-1.3,2.9-3C43.3,29.4,42,28.1,40.4,28.1"/>
<path class="st0" d="M42.7,16.7c-0.1,0-8.7,0-8.7,0s-0.6,0.1-0.6-0.7V10c0,0,0.1-0.4,0.7-0.4h4.3c0,0,0.5-0.1,0.8,0.4
	c0.6,1,3.8,5.8,3.8,5.8S43.7,16.7,42.7,16.7L42.7,16.7z M48,20.8c0-1.7-0.7-2.1-1.9-3.8L40.3,9c-0.9-1.2-2-1.4-3.4-1.4l-5,0l0,15.8
	c0,1-0.5,1.6-1.5,1.6H2.6v4.3c0,1.6,0.7,1.6,2.3,1.7l1.6,0c0-2.1,1.7-3.7,3.7-3.7c2,0,3.7,1.7,3.7,3.8c0,0,0,0,0,0l1.9,0
	c0-2.1,1.7-3.7,3.7-3.7c2,0,3.7,1.6,3.7,3.7h0c0,0,0,0,0,0l13.5,0c0-2.1,1.7-3.8,3.7-3.8c2.1,0,3.7,1.6,3.7,3.7h0.8
	c1.7,0,3.1-0.1,3.1-1.8L48,20.8z"/>
</svg>
