<?xml version="1.0" encoding="utf-8"?>
<!-- Generator: Adobe Illustrator 24.3.0, SVG Export Plug-In . SVG Version: 6.00 Build 0)  -->
<svg version="1.1" id="Layer_1" xmlns="http://www.w3.org/2000/svg" xmlns:xlink="http://www.w3.org/1999/xlink" x="0px" y="0px"
	 viewBox="0 0 48 34" style="enable-background:new 0 0 48 34;" xml:space="preserve">
<style type="text/css">
	.st0{fill-rule:evenodd;clip-rule:evenodd;fill:#444F55;}
</style>
<path class="st0" d="M39,20.7c0,0.3-0.3,0.5-0.5,0.4c-3.6-0.4-4.6,0.3-4.8,0.8c-0.3,0.6,0.1,1.4,0.6,2.3c0.6,1.1,1.3,2.3,0.8,3.6
	c-0.7,2-3.8,3-6.8,3c-0.5,0-1.1,0-1.6-0.1c-3.1-0.4-5-2.1-6.6-3.6c-1.5-1.3-2.8-2.5-4.7-2.6c-2.6-0.2-5.4,1.5-8.3,5
	c-0.2,0.2-0.5,0.2-0.7,0.1c-0.2-0.2-0.2-0.5-0.1-0.7c3.2-3.8,6.2-5.6,9.1-5.4c2.3,0.2,3.8,1.5,5.3,2.9c1.6,1.4,3.3,2.9,6.1,3.3
	c3.2,0.4,6.7-0.7,7.3-2.3c0.3-0.9-0.2-1.9-0.7-2.9c-0.6-1.1-1.2-2.2-0.6-3.2c0.6-1.2,2.5-1.6,5.7-1.3C38.8,20.2,39,20.4,39,20.7
	 M47.9,32.2l-7.6-18c-0.1-0.3-0.4-0.6-0.7-0.6h-6.8c-1.6,3.2-5,5.4-8.8,5.4s-7.2-2.2-8.8-5.4H8.4c-0.3,0-0.5,0.2-0.7,0.5l-7.6,18
	c-0.3,0.7,0.1,1.4,0.7,1.4h46.5C47.8,33.6,48.2,32.8,47.9,32.2"/>
<path class="st0" d="M24,3.2c0.9,0,1.6,0.5,1.6,1.4C25.6,5.5,25,6,24,6c-0.9,0-1.6-0.4-1.6-1.3C22.4,3.7,23.1,3.2,24,3.2L24,3.2z
	 M25.4,14.4v0.9h-2.8v-0.9v-0.7v-0.4V7.4h2.8v5.9v0.4V14.4z M24,18.3c3.4,0,6.4-1.9,8-4.7c0.7-1.3,1.2-2.9,1.2-4.5
	C33.2,4.1,29.1,0,24,0c-5.1,0-9.2,4.1-9.2,9.2c0,1.6,0.4,3.2,1.2,4.5C17.6,16.4,20.6,18.3,24,18.3L24,18.3z"/>
</svg>
