<svg xmlns="http://www.w3.org/2000/svg" version="1.1" xmlns:xlink="http://www.w3.org/1999/xlink" xmlns:svgjs="http://svgjs.com/svgjs" width="1440" height="560" preserveAspectRatio="none" viewBox="0 0 1440 560"><g mask="url(&quot;#SvgjsMask1022&quot;)" fill="none"><rect width="1440" height="560" x="0" y="0" fill="url(#SvgjsLinearGradient1023)"></rect><path d="M-38 398.52L-38 398.52" stroke="#132e65" stroke-width="1.5"></path><path d="M-38 398.52L55.06 353.19" stroke="#132e65" stroke-width="1.5"></path><path d="M-38 398.52L93.56 492.07" stroke="#132e65" stroke-width="1.5"></path><path d="M-38 398.52L-112.09 544.97" stroke="#132e65" stroke-width="1.5"></path><path d="M-112.09 544.97L-112.09 544.97" stroke="#132e65" stroke-width="1.5"></path><path d="M-112.09 544.97L-92.87 712.18" stroke="#132e65" stroke-width="1.5"></path><path d="M-112.09 544.97L57.93 656.9" stroke="#132e65" stroke-width="1.5"></path><path d="M-112.09 544.97L93.56 492.07" stroke="#132e65" stroke-width="1.5"></path><path d="M-112.09 544.97L55.06 353.19" stroke="#132e65" stroke-width="1.5"></path><path d="M-92.87 712.18L-92.87 712.18" stroke="#132e65" stroke-width="1.5"></path><path d="M-92.87 712.18L57.93 656.9" stroke="#132e65" stroke-width="1.5"></path><path d="M-92.87 712.18L93.56 492.07" stroke="#132e65" stroke-width="1.5"></path><path d="M-92.87 712.18L-38 398.52" stroke="#132e65" stroke-width="1.5"></path><path d="M-92.87 712.18L227.48 698.46" stroke="#132e65" stroke-width="1.5"></path><path d="M55.06 353.19L55.06 353.19" stroke="#132e65" stroke-width="1.5"></path><path d="M55.06 353.19L93.56 492.07" stroke="#132e65" stroke-width="1.5"></path><path d="M55.06 353.19L223.81 387.65" stroke="#132e65" stroke-width="1.5"></path><path d="M55.06 353.19L200.22 548.67" stroke="#132e65" stroke-width="1.5"></path><path d="M93.56 492.07L93.56 492.07" stroke="#132e65" stroke-width="1.5"></path><path d="M93.56 492.07L200.22 548.67" stroke="#132e65" stroke-width="1.5"></path><path d="M93.56 492.07L223.81 387.65" stroke="#132e65" stroke-width="1.5"></path><path d="M57.93 656.9L57.93 656.9" stroke="#132e65" stroke-width="1.5"></path><path d="M57.93 656.9L93.56 492.07" stroke="#132e65" stroke-width="1.5"></path><path d="M57.93 656.9L227.48 698.46" stroke="#132e65" stroke-width="1.5"></path><path d="M57.93 656.9L200.22 548.67" stroke="#132e65" stroke-width="1.5"></path><path d="M57.93 656.9L-38 398.52" stroke="#132e65" stroke-width="1.5"></path><path d="M223.81 387.65L223.81 387.65" stroke="#132e65" stroke-width="1.5"></path><path d="M223.81 387.65L200.22 548.67" stroke="#132e65" stroke-width="1.5"></path><path d="M223.81 387.65L401.3 368.33" stroke="#132e65" stroke-width="1.5"></path><path d="M223.81 387.65L366.18 547.76" stroke="#132e65" stroke-width="1.5"></path><path d="M223.81 387.65L-38 398.52" stroke="#132e65" stroke-width="1.5"></path><path d="M200.22 548.67L200.22 548.67" stroke="#132e65" stroke-width="1.5"></path><path d="M200.22 548.67L227.48 698.46" stroke="#132e65" stroke-width="1.5"></path><path d="M200.22 548.67L366.18 547.76" stroke="#132e65" stroke-width="1.5"></path><path d="M227.48 698.46L227.48 698.46" stroke="#132e65" stroke-width="1.5"></path><path d="M227.48 698.46L367.83 673.47" stroke="#132e65" stroke-width="1.5"></path><path d="M401.3 368.33L401.3 368.33" stroke="#132e65" stroke-width="1.5"></path><path d="M401.3 368.33L520.84 383.35" stroke="#132e65" stroke-width="1.5"></path><path d="M401.3 368.33L492.62 526.7" stroke="#132e65" stroke-width="1.5"></path><path d="M401.3 368.33L366.18 547.76" stroke="#132e65" stroke-width="1.5"></path><path d="M401.3 368.33L646.44 387.84" stroke="#132e65" stroke-width="1.5"></path><path d="M401.3 368.33L200.22 548.67" stroke="#132e65" stroke-width="1.5"></path><path d="M366.18 547.76L366.18 547.76" stroke="#132e65" stroke-width="1.5"></path><path d="M366.18 547.76L367.83 673.47" stroke="#132e65" stroke-width="1.5"></path><path d="M366.18 547.76L492.62 526.7" stroke="#132e65" stroke-width="1.5"></path><path d="M367.83 673.47L367.83 673.47" stroke="#132e65" stroke-width="1.5"></path><path d="M367.83 673.47L533.57 644.35" stroke="#132e65" stroke-width="1.5"></path><path d="M520.84 383.35L520.84 383.35" stroke="#132e65" stroke-width="1.5"></path><path d="M520.84 383.35L646.44 387.84" stroke="#132e65" stroke-width="1.5"></path><path d="M520.84 383.35L492.62 526.7" stroke="#132e65" stroke-width="1.5"></path><path d="M492.62 526.7L492.62 526.7" stroke="#132e65" stroke-width="1.5"></path><path d="M492.62 526.7L533.57 644.35" stroke="#132e65" stroke-width="1.5"></path><path d="M533.57 644.35L533.57 644.35" stroke="#132e65" stroke-width="1.5"></path><path d="M533.57 644.35L709.23 712.19" stroke="#132e65" stroke-width="1.5"></path><path d="M533.57 644.35L366.18 547.76" stroke="#132e65" stroke-width="1.5"></path><path d="M533.57 644.35L682.43 515.94" stroke="#132e65" stroke-width="1.5"></path><path d="M533.57 644.35L520.84 383.35" stroke="#132e65" stroke-width="1.5"></path><path d="M705.68 247.51L705.68 247.51" stroke="#132e65" stroke-width="1.5"></path><path d="M705.68 247.51L850.37 217.7" stroke="#132e65" stroke-width="1.5"></path><path d="M705.68 247.51L646.44 387.84" stroke="#132e65" stroke-width="1.5"></path><path d="M705.68 247.51L841.96 358.12" stroke="#132e65" stroke-width="1.5"></path><path d="M705.68 247.51L520.84 383.35" stroke="#132e65" stroke-width="1.5"></path><path d="M646.44 387.84L646.44 387.84" stroke="#132e65" stroke-width="1.5"></path><path d="M646.44 387.84L682.43 515.94" stroke="#132e65" stroke-width="1.5"></path><path d="M682.43 515.94L682.43 515.94" stroke="#132e65" stroke-width="1.5"></path><path d="M709.23 712.19L709.23 712.19" stroke="#132e65" stroke-width="1.5"></path><path d="M709.23 712.19L854.38 687.42" stroke="#132e65" stroke-width="1.5"></path><path d="M709.23 712.19L682.43 515.94" stroke="#132e65" stroke-width="1.5"></path><path d="M709.23 712.19L852.38 492.3" stroke="#132e65" stroke-width="1.5"></path><path d="M850.37 217.7L850.37 217.7" stroke="#132e65" stroke-width="1.5"></path><path d="M850.37 217.7L958.32 260.83" stroke="#132e65" stroke-width="1.5"></path><path d="M850.37 217.7L841.96 358.12" stroke="#132e65" stroke-width="1.5"></path><path d="M841.96 358.12L841.96 358.12" stroke="#132e65" stroke-width="1.5"></path><path d="M841.96 358.12L852.38 492.3" stroke="#132e65" stroke-width="1.5"></path><path d="M841.96 358.12L985.62 339.69" stroke="#132e65" stroke-width="1.5"></path><path d="M841.96 358.12L958.32 260.83" stroke="#132e65" stroke-width="1.5"></path><path d="M852.38 492.3L852.38 492.3" stroke="#132e65" stroke-width="1.5"></path><path d="M852.38 492.3L682.43 515.94" stroke="#132e65" stroke-width="1.5"></path><path d="M854.38 687.42L854.38 687.42" stroke="#132e65" stroke-width="1.5"></path><path d="M854.38 687.42L978.58 643.41" stroke="#132e65" stroke-width="1.5"></path><path d="M854.38 687.42L852.38 492.3" stroke="#132e65" stroke-width="1.5"></path><path d="M854.38 687.42L682.43 515.94" stroke="#132e65" stroke-width="1.5"></path><path d="M854.38 687.42L533.57 644.35" stroke="#132e65" stroke-width="1.5"></path><path d="M958.32 260.83L958.32 260.83" stroke="#132e65" stroke-width="1.5"></path><path d="M958.32 260.83L985.62 339.69" stroke="#132e65" stroke-width="1.5"></path><path d="M958.32 260.83L1117.9 199.29" stroke="#132e65" stroke-width="1.5"></path><path d="M958.32 260.83L1157.77 394.21" stroke="#132e65" stroke-width="1.5"></path><path d="M958.32 260.83L705.68 247.51" stroke="#132e65" stroke-width="1.5"></path><path d="M985.62 339.69L985.62 339.69" stroke="#132e65" stroke-width="1.5"></path><path d="M985.62 339.69L1157.77 394.21" stroke="#132e65" stroke-width="1.5"></path><path d="M985.62 339.69L850.37 217.7" stroke="#132e65" stroke-width="1.5"></path><path d="M985.62 339.69L1117.9 199.29" stroke="#132e65" stroke-width="1.5"></path><path d="M985.62 339.69L852.38 492.3" stroke="#132e65" stroke-width="1.5"></path><path d="M978.58 643.41L978.58 643.41" stroke="#132e65" stroke-width="1.5"></path><path d="M978.58 643.41L852.38 492.3" stroke="#132e65" stroke-width="1.5"></path><path d="M978.58 643.41L1140.01 514.83" stroke="#132e65" stroke-width="1.5"></path><path d="M1143.48 -105.46L1143.48 -105.46" stroke="#132e65" stroke-width="1.5"></path><path d="M1143.48 -105.46L1285.89 -81.08" stroke="#132e65" stroke-width="1.5"></path><path d="M1143.48 -105.46L1159.21 99.63" stroke="#132e65" stroke-width="1.5"></path><path d="M1143.48 -105.46L1294.72 79.05" stroke="#132e65" stroke-width="1.5"></path><path d="M1159.21 99.63L1159.21 99.63" stroke="#132e65" stroke-width="1.5"></path><path d="M1159.21 99.63L1117.9 199.29" stroke="#132e65" stroke-width="1.5"></path><path d="M1117.9 199.29L1117.9 199.29" stroke="#132e65" stroke-width="1.5"></path><path d="M1117.9 199.29L1240.79 203.01" stroke="#132e65" stroke-width="1.5"></path><path d="M1117.9 199.29L1157.77 394.21" stroke="#132e65" stroke-width="1.5"></path><path d="M1117.9 199.29L1294.72 79.05" stroke="#132e65" stroke-width="1.5"></path><path d="M1157.77 394.21L1157.77 394.21" stroke="#132e65" stroke-width="1.5"></path><path d="M1157.77 394.21L1140.01 514.83" stroke="#132e65" stroke-width="1.5"></path><path d="M1157.77 394.21L1303.5 361.86" stroke="#132e65" stroke-width="1.5"></path><path d="M1157.77 394.21L1275.16 552.36" stroke="#132e65" stroke-width="1.5"></path><path d="M1157.77 394.21L1240.79 203.01" stroke="#132e65" stroke-width="1.5"></path><path d="M1140.01 514.83L1140.01 514.83" stroke="#132e65" stroke-width="1.5"></path><path d="M1140.01 514.83L1275.16 552.36" stroke="#132e65" stroke-width="1.5"></path><path d="M1140.01 514.83L1254.79 642.41" stroke="#132e65" stroke-width="1.5"></path><path d="M1140.01 514.83L1303.5 361.86" stroke="#132e65" stroke-width="1.5"></path><path d="M1285.89 -81.08L1285.89 -81.08" stroke="#132e65" stroke-width="1.5"></path><path d="M1285.89 -81.08L1294.72 79.05" stroke="#132e65" stroke-width="1.5"></path><path d="M1285.89 -81.08L1159.21 99.63" stroke="#132e65" stroke-width="1.5"></path><path d="M1285.89 -81.08L1451.09 71.02" stroke="#132e65" stroke-width="1.5"></path><path d="M1285.89 -81.08L1568.56 -108.38" stroke="#132e65" stroke-width="1.5"></path><path d="M1285.89 -81.08L1240.79 203.01" stroke="#132e65" stroke-width="1.5"></path><path d="M1294.72 79.05L1294.72 79.05" stroke="#132e65" stroke-width="1.5"></path><path d="M1294.72 79.05L1240.79 203.01" stroke="#132e65" stroke-width="1.5"></path><path d="M1294.72 79.05L1159.21 99.63" stroke="#132e65" stroke-width="1.5"></path><path d="M1294.72 79.05L1451.09 71.02" stroke="#132e65" stroke-width="1.5"></path><path d="M1240.79 203.01L1240.79 203.01" stroke="#132e65" stroke-width="1.5"></path><path d="M1240.79 203.01L1159.21 99.63" stroke="#132e65" stroke-width="1.5"></path><path d="M1240.79 203.01L1303.5 361.86" stroke="#132e65" stroke-width="1.5"></path><path d="M1303.5 361.86L1303.5 361.86" stroke="#132e65" stroke-width="1.5"></path><path d="M1303.5 361.86L1449.76 378.25" stroke="#132e65" stroke-width="1.5"></path><path d="M1275.16 552.36L1275.16 552.36" stroke="#132e65" stroke-width="1.5"></path><path d="M1275.16 552.36L1254.79 642.41" stroke="#132e65" stroke-width="1.5"></path><path d="M1275.16 552.36L1423.12 516.46" stroke="#132e65" stroke-width="1.5"></path><path d="M1275.16 552.36L1432.3 663.61" stroke="#132e65" stroke-width="1.5"></path><path d="M1254.79 642.41L1254.79 642.41" stroke="#132e65" stroke-width="1.5"></path><path d="M1254.79 642.41L1432.3 663.61" stroke="#132e65" stroke-width="1.5"></path><path d="M1254.79 642.41L1423.12 516.46" stroke="#132e65" stroke-width="1.5"></path><path d="M1254.79 642.41L1157.77 394.21" stroke="#132e65" stroke-width="1.5"></path><path d="M1451.09 71.02L1451.09 71.02" stroke="#132e65" stroke-width="1.5"></path><path d="M1451.09 71.02L1438.57 189.75" stroke="#132e65" stroke-width="1.5"></path><path d="M1451.09 71.02L1584.7 88.88" stroke="#132e65" stroke-width="1.5"></path><path d="M1451.09 71.02L1538.11 205.1" stroke="#132e65" stroke-width="1.5"></path><path d="M1438.57 189.75L1438.57 189.75" stroke="#132e65" stroke-width="1.5"></path><path d="M1438.57 189.75L1538.11 205.1" stroke="#132e65" stroke-width="1.5"></path><path d="M1438.57 189.75L1584.7 88.88" stroke="#132e65" stroke-width="1.5"></path><path d="M1438.57 189.75L1294.72 79.05" stroke="#132e65" stroke-width="1.5"></path><path d="M1449.76 378.25L1449.76 378.25" stroke="#132e65" stroke-width="1.5"></path><path d="M1449.76 378.25L1558.33 345.87" stroke="#132e65" stroke-width="1.5"></path><path d="M1449.76 378.25L1423.12 516.46" stroke="#132e65" stroke-width="1.5"></path><path d="M1449.76 378.25L1438.57 189.75" stroke="#132e65" stroke-width="1.5"></path><path d="M1449.76 378.25L1538.11 205.1" stroke="#132e65" stroke-width="1.5"></path><path d="M1423.12 516.46L1423.12 516.46" stroke="#132e65" stroke-width="1.5"></path><path d="M1423.12 516.46L1432.3 663.61" stroke="#132e65" stroke-width="1.5"></path><path d="M1423.12 516.46L1577.01 552.76" stroke="#132e65" stroke-width="1.5"></path><path d="M1432.3 663.61L1432.3 663.61" stroke="#132e65" stroke-width="1.5"></path><path d="M1432.3 663.61L1547.42 708.4" stroke="#132e65" stroke-width="1.5"></path><path d="M1568.56 -108.38L1568.56 -108.38" stroke="#132e65" stroke-width="1.5"></path><path d="M1568.56 -108.38L1584.7 88.88" stroke="#132e65" stroke-width="1.5"></path><path d="M1568.56 -108.38L1451.09 71.02" stroke="#132e65" stroke-width="1.5"></path><path d="M1584.7 88.88L1584.7 88.88" stroke="#132e65" stroke-width="1.5"></path><path d="M1584.7 88.88L1538.11 205.1" stroke="#132e65" stroke-width="1.5"></path><path d="M1584.7 88.88L1558.33 345.87" stroke="#132e65" stroke-width="1.5"></path><path d="M1584.7 88.88L1294.72 79.05" stroke="#132e65" stroke-width="1.5"></path><path d="M1538.11 205.1L1538.11 205.1" stroke="#132e65" stroke-width="1.5"></path><path d="M1538.11 205.1L1558.33 345.87" stroke="#132e65" stroke-width="1.5"></path><path d="M1558.33 345.87L1558.33 345.87" stroke="#132e65" stroke-width="1.5"></path><path d="M1577.01 552.76L1577.01 552.76" stroke="#132e65" stroke-width="1.5"></path><path d="M1577.01 552.76L1547.42 708.4" stroke="#132e65" stroke-width="1.5"></path><path d="M1577.01 552.76L1432.3 663.61" stroke="#132e65" stroke-width="1.5"></path><path d="M1577.01 552.76L1558.33 345.87" stroke="#132e65" stroke-width="1.5"></path><path d="M1547.42 708.4L1547.42 708.4" stroke="#132e65" stroke-width="1.5"></path><path d="M1547.42 708.4L1423.12 516.46" stroke="#132e65" stroke-width="1.5"></path><circle r="5" cx="-38" cy="398.52" fill="#132e65"></circle><circle r="5" cx="-112.09" cy="544.97" fill="#132e65"></circle><circle r="5" cx="-92.87" cy="712.18" fill="#132e65"></circle><circle r="5" cx="55.06" cy="353.19" fill="#132e65"></circle><circle r="5" cx="93.56" cy="492.07" fill="#132e65"></circle><circle r="5" cx="57.93" cy="656.9" fill="#132e65"></circle><circle r="5" cx="223.81" cy="387.65" fill="#132e65"></circle><circle r="5" cx="200.22" cy="548.67" fill="#132e65"></circle><circle r="5" cx="227.48" cy="698.46" fill="#132e65"></circle><circle r="5" cx="401.3" cy="368.33" fill="#132e65"></circle><circle r="5" cx="366.18" cy="547.76" fill="#132e65"></circle><circle r="5" cx="367.83" cy="673.47" fill="#132e65"></circle><circle r="5" cx="520.84" cy="383.35" fill="#132e65"></circle><circle r="5" cx="492.62" cy="526.7" fill="#132e65"></circle><circle r="5" cx="533.57" cy="644.35" fill="#132e65"></circle><circle r="5" cx="705.68" cy="247.51" fill="#132e65"></circle><circle r="5" cx="646.44" cy="387.84" fill="#132e65"></circle><circle r="5" cx="682.43" cy="515.94" fill="#132e65"></circle><circle r="5" cx="709.23" cy="712.19" fill="#132e65"></circle><circle r="5" cx="850.37" cy="217.7" fill="#132e65"></circle><circle r="5" cx="841.96" cy="358.12" fill="#132e65"></circle><circle r="5" cx="852.38" cy="492.3" fill="#132e65"></circle><circle r="5" cx="854.38" cy="687.42" fill="#132e65"></circle><circle r="5" cx="958.32" cy="260.83" fill="#132e65"></circle><circle r="5" cx="985.62" cy="339.69" fill="#132e65"></circle><circle r="5" cx="978.58" cy="643.41" fill="#132e65"></circle><circle r="5" cx="1143.48" cy="-105.46" fill="#132e65"></circle><circle r="5" cx="1159.21" cy="99.63" fill="#132e65"></circle><circle r="5" cx="1117.9" cy="199.29" fill="#132e65"></circle><circle r="5" cx="1157.77" cy="394.21" fill="#132e65"></circle><circle r="5" cx="1140.01" cy="514.83" fill="#132e65"></circle><circle r="5" cx="1285.89" cy="-81.08" fill="#132e65"></circle><circle r="5" cx="1294.72" cy="79.05" fill="#132e65"></circle><circle r="5" cx="1240.79" cy="203.01" fill="#132e65"></circle><circle r="5" cx="1303.5" cy="361.86" fill="#132e65"></circle><circle r="5" cx="1275.16" cy="552.36" fill="#132e65"></circle><circle r="5" cx="1254.79" cy="642.41" fill="#132e65"></circle><circle r="5" cx="1451.09" cy="71.02" fill="#132e65"></circle><circle r="5" cx="1438.57" cy="189.75" fill="#132e65"></circle><circle r="5" cx="1449.76" cy="378.25" fill="#132e65"></circle><circle r="5" cx="1423.12" cy="516.46" fill="#132e65"></circle><circle r="5" cx="1432.3" cy="663.61" fill="#132e65"></circle><circle r="5" cx="1568.56" cy="-108.38" fill="#132e65"></circle><circle r="5" cx="1584.7" cy="88.88" fill="#132e65"></circle><circle r="5" cx="1538.11" cy="205.1" fill="#132e65"></circle><circle r="5" cx="1558.33" cy="345.87" fill="#132e65"></circle><circle r="5" cx="1577.01" cy="552.76" fill="#132e65"></circle><circle r="5" cx="1547.42" cy="708.4" fill="#132e65"></circle><path d="M219.27 692.66L219.27 692.66" stroke="hsl(228.5, 77.2%, 51.5%)" stroke-width="1.5"></path><path d="M219.27 692.66L363.16 644.64" stroke="hsl(228.5, 77.2%, 51.5%)" stroke-width="1.5"></path><path d="M219.27 692.66L217.38 508.85" stroke="hsl(228.5, 77.2%, 51.5%)" stroke-width="1.5"></path><path d="M219.27 692.66L43.7 637.74" stroke="hsl(228.5, 77.2%, 51.5%)" stroke-width="1.5"></path><path d="M363.16 644.64L363.16 644.64" stroke="hsl(228.5, 77.2%, 51.5%)" stroke-width="1.5"></path><path d="M363.16 644.64L387.14 543.95" stroke="hsl(228.5, 77.2%, 51.5%)" stroke-width="1.5"></path><path d="M363.16 644.64L488.27 642.78" stroke="hsl(228.5, 77.2%, 51.5%)" stroke-width="1.5"></path><path d="M1105.38 261.59L1105.38 261.59" stroke="hsl(228.5, 77.2%, 51.5%)" stroke-width="1.5"></path><path d="M1105.38 261.59L1116.62 366.66" stroke="hsl(228.5, 77.2%, 51.5%)" stroke-width="1.5"></path><path d="M1105.38 261.59L1277.81 342.31" stroke="hsl(228.5, 77.2%, 51.5%)" stroke-width="1.5"></path><path d="M1126.22 705.79L1126.22 705.79" stroke="hsl(228.5, 77.2%, 51.5%)" stroke-width="1.5"></path><path d="M1126.22 705.79L978.29 701.01" stroke="hsl(228.5, 77.2%, 51.5%)" stroke-width="1.5"></path><path d="M1126.22 705.79L1310.41 697.41" stroke="hsl(228.5, 77.2%, 51.5%)" stroke-width="1.5"></path><path d="M1126.22 705.79L1161.67 501.47" stroke="hsl(228.5, 77.2%, 51.5%)" stroke-width="1.5"></path><path d="M1126.22 705.79L1303.89 505.77" stroke="hsl(228.5, 77.2%, 51.5%)" stroke-width="1.5"></path><path d="M1126.22 705.79L834.18 550.18" stroke="hsl(228.5, 77.2%, 51.5%)" stroke-width="1.5"></path><path d="M1126.22 705.79L795.23 637.52" stroke="hsl(228.5, 77.2%, 51.5%)" stroke-width="1.5"></path><path d="M1300.74 -79.42L1300.74 -79.42" stroke="hsl(228.5, 77.2%, 51.5%)" stroke-width="1.5"></path><path d="M1300.74 -79.42L1433.92 -97.69" stroke="hsl(228.5, 77.2%, 51.5%)" stroke-width="1.5"></path><path d="M1300.74 -79.42L1269.38 72.9" stroke="hsl(228.5, 77.2%, 51.5%)" stroke-width="1.5"></path><path d="M1300.74 -79.42L1444.69 110.78" stroke="hsl(228.5, 77.2%, 51.5%)" stroke-width="1.5"></path><path d="M1601.28 88.25L1601.28 88.25" stroke="hsl(228.5, 77.2%, 51.5%)" stroke-width="1.5"></path><path d="M1601.28 88.25L1541.74 215.29" stroke="hsl(228.5, 77.2%, 51.5%)" stroke-width="1.5"></path><path d="M1601.28 88.25L1585.15 -61.89" stroke="hsl(228.5, 77.2%, 51.5%)" stroke-width="1.5"></path><path d="M1562.35 377.18L1562.35 377.18" stroke="hsl(228.5, 77.2%, 51.5%)" stroke-width="1.5"></path><path d="M1562.35 377.18L1541.74 215.29" stroke="hsl(228.5, 77.2%, 51.5%)" stroke-width="1.5"></path><path d="M1562.35 377.18L1589.6 539.58" stroke="hsl(228.5, 77.2%, 51.5%)" stroke-width="1.5"></path><path d="M-38.46 488.7L-38.46 488.7" stroke="hsl(228.5, 77.2%, 51.5%)" stroke-width="1.5"></path><path d="M-38.46 488.7L43.7 637.74" stroke="hsl(228.5, 77.2%, 51.5%)" stroke-width="1.5"></path><path d="M-38.46 488.7L-45.53 698.8" stroke="hsl(228.5, 77.2%, 51.5%)" stroke-width="1.5"></path><path d="M-38.46 488.7L217.38 508.85" stroke="hsl(228.5, 77.2%, 51.5%)" stroke-width="1.5"></path><path d="M-38.46 488.7L219.27 692.66" stroke="hsl(228.5, 77.2%, 51.5%)" stroke-width="1.5"></path><path d="M-38.46 488.7L387.14 543.95" stroke="hsl(228.5, 77.2%, 51.5%)" stroke-width="1.5"></path><path d="M-38.46 488.7L363.16 644.64" stroke="hsl(228.5, 77.2%, 51.5%)" stroke-width="1.5"></path><path d="M-45.53 698.8L-45.53 698.8" stroke="hsl(228.5, 77.2%, 51.5%)" stroke-width="1.5"></path><path d="M-45.53 698.8L43.7 637.74" stroke="hsl(228.5, 77.2%, 51.5%)" stroke-width="1.5"></path><path d="M-45.53 698.8L219.27 692.66" stroke="hsl(228.5, 77.2%, 51.5%)" stroke-width="1.5"></path><path d="M-45.53 698.8L217.38 508.85" stroke="hsl(228.5, 77.2%, 51.5%)" stroke-width="1.5"></path><path d="M43.7 637.74L43.7 637.74" stroke="hsl(228.5, 77.2%, 51.5%)" stroke-width="1.5"></path><path d="M43.7 637.74L217.38 508.85" stroke="hsl(228.5, 77.2%, 51.5%)" stroke-width="1.5"></path><path d="M43.7 637.74L363.16 644.64" stroke="hsl(228.5, 77.2%, 51.5%)" stroke-width="1.5"></path><path d="M217.38 508.85L217.38 508.85" stroke="hsl(228.5, 77.2%, 51.5%)" stroke-width="1.5"></path><path d="M217.38 508.85L387.14 543.95" stroke="hsl(228.5, 77.2%, 51.5%)" stroke-width="1.5"></path><path d="M217.38 508.85L363.16 644.64" stroke="hsl(228.5, 77.2%, 51.5%)" stroke-width="1.5"></path><path d="M387.14 543.95L387.14 543.95" stroke="hsl(228.5, 77.2%, 51.5%)" stroke-width="1.5"></path><path d="M387.14 543.95L488.27 642.78" stroke="hsl(228.5, 77.2%, 51.5%)" stroke-width="1.5"></path><path d="M488.27 642.78L488.27 642.78" stroke="hsl(228.5, 77.2%, 51.5%)" stroke-width="1.5"></path><path d="M707.39 522.27L707.39 522.27" stroke="hsl(228.5, 77.2%, 51.5%)" stroke-width="1.5"></path><path d="M707.39 522.27L834.18 550.18" stroke="hsl(228.5, 77.2%, 51.5%)" stroke-width="1.5"></path><path d="M707.39 522.27L676.86 657.18" stroke="hsl(228.5, 77.2%, 51.5%)" stroke-width="1.5"></path><path d="M707.39 522.27L795.23 637.52" stroke="hsl(228.5, 77.2%, 51.5%)" stroke-width="1.5"></path><path d="M707.39 522.27L828.67 395.42" stroke="hsl(228.5, 77.2%, 51.5%)" stroke-width="1.5"></path><path d="M676.86 657.18L676.86 657.18" stroke="hsl(228.5, 77.2%, 51.5%)" stroke-width="1.5"></path><path d="M676.86 657.18L795.23 637.52" stroke="hsl(228.5, 77.2%, 51.5%)" stroke-width="1.5"></path><path d="M676.86 657.18L488.27 642.78" stroke="hsl(228.5, 77.2%, 51.5%)" stroke-width="1.5"></path><path d="M676.86 657.18L834.18 550.18" stroke="hsl(228.5, 77.2%, 51.5%)" stroke-width="1.5"></path><path d="M676.86 657.18L828.67 395.42" stroke="hsl(228.5, 77.2%, 51.5%)" stroke-width="1.5"></path><path d="M828.67 395.42L828.67 395.42" stroke="hsl(228.5, 77.2%, 51.5%)" stroke-width="1.5"></path><path d="M828.67 395.42L947.41 379.08" stroke="hsl(228.5, 77.2%, 51.5%)" stroke-width="1.5"></path><path d="M828.67 395.42L834.18 550.18" stroke="hsl(228.5, 77.2%, 51.5%)" stroke-width="1.5"></path><path d="M834.18 550.18L834.18 550.18" stroke="hsl(228.5, 77.2%, 51.5%)" stroke-width="1.5"></path><path d="M834.18 550.18L795.23 637.52" stroke="hsl(228.5, 77.2%, 51.5%)" stroke-width="1.5"></path><path d="M834.18 550.18L947.41 379.08" stroke="hsl(228.5, 77.2%, 51.5%)" stroke-width="1.5"></path><path d="M834.18 550.18L978.29 701.01" stroke="hsl(228.5, 77.2%, 51.5%)" stroke-width="1.5"></path><path d="M795.23 637.52L795.23 637.52" stroke="hsl(228.5, 77.2%, 51.5%)" stroke-width="1.5"></path><path d="M795.23 637.52L978.29 701.01" stroke="hsl(228.5, 77.2%, 51.5%)" stroke-width="1.5"></path><path d="M795.23 637.52L828.67 395.42" stroke="hsl(228.5, 77.2%, 51.5%)" stroke-width="1.5"></path><path d="M795.23 637.52L947.41 379.08" stroke="hsl(228.5, 77.2%, 51.5%)" stroke-width="1.5"></path><path d="M947.41 379.08L947.41 379.08" stroke="hsl(228.5, 77.2%, 51.5%)" stroke-width="1.5"></path><path d="M947.41 379.08L1116.62 366.66" stroke="hsl(228.5, 77.2%, 51.5%)" stroke-width="1.5"></path><path d="M947.41 379.08L1105.38 261.59" stroke="hsl(228.5, 77.2%, 51.5%)" stroke-width="1.5"></path><path d="M978.29 701.01L978.29 701.01" stroke="hsl(228.5, 77.2%, 51.5%)" stroke-width="1.5"></path><path d="M978.29 701.01L1161.67 501.47" stroke="hsl(228.5, 77.2%, 51.5%)" stroke-width="1.5"></path><path d="M978.29 701.01L676.86 657.18" stroke="hsl(228.5, 77.2%, 51.5%)" stroke-width="1.5"></path><path d="M978.29 701.01L947.41 379.08" stroke="hsl(228.5, 77.2%, 51.5%)" stroke-width="1.5"></path><path d="M1116.62 366.66L1116.62 366.66" stroke="hsl(228.5, 77.2%, 51.5%)" stroke-width="1.5"></path><path d="M1116.62 366.66L1161.67 501.47" stroke="hsl(228.5, 77.2%, 51.5%)" stroke-width="1.5"></path><path d="M1116.62 366.66L1277.81 342.31" stroke="hsl(228.5, 77.2%, 51.5%)" stroke-width="1.5"></path><path d="M1161.67 501.47L1161.67 501.47" stroke="hsl(228.5, 77.2%, 51.5%)" stroke-width="1.5"></path><path d="M1161.67 501.47L1303.89 505.77" stroke="hsl(228.5, 77.2%, 51.5%)" stroke-width="1.5"></path><path d="M1161.67 501.47L1277.81 342.31" stroke="hsl(228.5, 77.2%, 51.5%)" stroke-width="1.5"></path><path d="M1269.38 72.9L1269.38 72.9" stroke="hsl(228.5, 77.2%, 51.5%)" stroke-width="1.5"></path><path d="M1269.38 72.9L1290.99 187.59" stroke="hsl(228.5, 77.2%, 51.5%)" stroke-width="1.5"></path><path d="M1269.38 72.9L1444.69 110.78" stroke="hsl(228.5, 77.2%, 51.5%)" stroke-width="1.5"></path><path d="M1269.38 72.9L1411.12 229.46" stroke="hsl(228.5, 77.2%, 51.5%)" stroke-width="1.5"></path><path d="M1269.38 72.9L1433.92 -97.69" stroke="hsl(228.5, 77.2%, 51.5%)" stroke-width="1.5"></path><path d="M1269.38 72.9L1105.38 261.59" stroke="hsl(228.5, 77.2%, 51.5%)" stroke-width="1.5"></path><path d="M1290.99 187.59L1290.99 187.59" stroke="hsl(228.5, 77.2%, 51.5%)" stroke-width="1.5"></path><path d="M1290.99 187.59L1411.12 229.46" stroke="hsl(228.5, 77.2%, 51.5%)" stroke-width="1.5"></path><path d="M1290.99 187.59L1277.81 342.31" stroke="hsl(228.5, 77.2%, 51.5%)" stroke-width="1.5"></path><path d="M1290.99 187.59L1444.69 110.78" stroke="hsl(228.5, 77.2%, 51.5%)" stroke-width="1.5"></path><path d="M1290.99 187.59L1105.38 261.59" stroke="hsl(228.5, 77.2%, 51.5%)" stroke-width="1.5"></path><path d="M1277.81 342.31L1277.81 342.31" stroke="hsl(228.5, 77.2%, 51.5%)" stroke-width="1.5"></path><path d="M1277.81 342.31L1303.89 505.77" stroke="hsl(228.5, 77.2%, 51.5%)" stroke-width="1.5"></path><path d="M1277.81 342.31L1411.12 229.46" stroke="hsl(228.5, 77.2%, 51.5%)" stroke-width="1.5"></path><path d="M1303.89 505.77L1303.89 505.77" stroke="hsl(228.5, 77.2%, 51.5%)" stroke-width="1.5"></path><path d="M1303.89 505.77L1436.39 523.48" stroke="hsl(228.5, 77.2%, 51.5%)" stroke-width="1.5"></path><path d="M1303.89 505.77L1310.41 697.41" stroke="hsl(228.5, 77.2%, 51.5%)" stroke-width="1.5"></path><path d="M1303.89 505.77L1116.62 366.66" stroke="hsl(228.5, 77.2%, 51.5%)" stroke-width="1.5"></path><path d="M1310.41 697.41L1310.41 697.41" stroke="hsl(228.5, 77.2%, 51.5%)" stroke-width="1.5"></path><path d="M1310.41 697.41L1436.39 523.48" stroke="hsl(228.5, 77.2%, 51.5%)" stroke-width="1.5"></path><path d="M1310.41 697.41L1161.67 501.47" stroke="hsl(228.5, 77.2%, 51.5%)" stroke-width="1.5"></path><path d="M1310.41 697.41L1558.84 704.56" stroke="hsl(228.5, 77.2%, 51.5%)" stroke-width="1.5"></path><path d="M1433.92 -97.69L1433.92 -97.69" stroke="hsl(228.5, 77.2%, 51.5%)" stroke-width="1.5"></path><path d="M1433.92 -97.69L1585.15 -61.89" stroke="hsl(228.5, 77.2%, 51.5%)" stroke-width="1.5"></path><path d="M1433.92 -97.69L1444.69 110.78" stroke="hsl(228.5, 77.2%, 51.5%)" stroke-width="1.5"></path><path d="M1433.92 -97.69L1601.28 88.25" stroke="hsl(228.5, 77.2%, 51.5%)" stroke-width="1.5"></path><path d="M1444.69 110.78L1444.69 110.78" stroke="hsl(228.5, 77.2%, 51.5%)" stroke-width="1.5"></path><path d="M1444.69 110.78L1411.12 229.46" stroke="hsl(228.5, 77.2%, 51.5%)" stroke-width="1.5"></path><path d="M1444.69 110.78L1541.74 215.29" stroke="hsl(228.5, 77.2%, 51.5%)" stroke-width="1.5"></path><path d="M1444.69 110.78L1601.28 88.25" stroke="hsl(228.5, 77.2%, 51.5%)" stroke-width="1.5"></path><path d="M1411.12 229.46L1411.12 229.46" stroke="hsl(228.5, 77.2%, 51.5%)" stroke-width="1.5"></path><path d="M1411.12 229.46L1541.74 215.29" stroke="hsl(228.5, 77.2%, 51.5%)" stroke-width="1.5"></path><path d="M1436.39 523.48L1436.39 523.48" stroke="hsl(228.5, 77.2%, 51.5%)" stroke-width="1.5"></path><path d="M1436.39 523.48L1589.6 539.58" stroke="hsl(228.5, 77.2%, 51.5%)" stroke-width="1.5"></path><path d="M1436.39 523.48L1562.35 377.18" stroke="hsl(228.5, 77.2%, 51.5%)" stroke-width="1.5"></path><path d="M1585.15 -61.89L1585.15 -61.89" stroke="hsl(228.5, 77.2%, 51.5%)" stroke-width="1.5"></path><path d="M1585.15 -61.89L1444.69 110.78" stroke="hsl(228.5, 77.2%, 51.5%)" stroke-width="1.5"></path><path d="M1585.15 -61.89L1541.74 215.29" stroke="hsl(228.5, 77.2%, 51.5%)" stroke-width="1.5"></path><path d="M1585.15 -61.89L1300.74 -79.42" stroke="hsl(228.5, 77.2%, 51.5%)" stroke-width="1.5"></path><path d="M1585.15 -61.89L1411.12 229.46" stroke="hsl(228.5, 77.2%, 51.5%)" stroke-width="1.5"></path><path d="M1541.74 215.29L1541.74 215.29" stroke="hsl(228.5, 77.2%, 51.5%)" stroke-width="1.5"></path><path d="M1541.74 215.29L1290.99 187.59" stroke="hsl(228.5, 77.2%, 51.5%)" stroke-width="1.5"></path><path d="M1589.6 539.58L1589.6 539.58" stroke="hsl(228.5, 77.2%, 51.5%)" stroke-width="1.5"></path><path d="M1589.6 539.58L1558.84 704.56" stroke="hsl(228.5, 77.2%, 51.5%)" stroke-width="1.5"></path><path d="M1558.84 704.56L1558.84 704.56" stroke="hsl(228.5, 77.2%, 51.5%)" stroke-width="1.5"></path><path d="M1558.84 704.56L1436.39 523.48" stroke="hsl(228.5, 77.2%, 51.5%)" stroke-width="1.5"></path><circle r="25" cx="219.27" cy="692.66" fill="url(#SvgjsRadialGradient1024)"></circle><circle r="25" cx="363.16" cy="644.64" fill="url(#SvgjsRadialGradient1024)"></circle><circle r="25" cx="1105.38" cy="261.59" fill="url(#SvgjsRadialGradient1024)"></circle><circle r="25" cx="1126.22" cy="705.79" fill="url(#SvgjsRadialGradient1024)"></circle><circle r="25" cx="1300.74" cy="-79.42" fill="url(#SvgjsRadialGradient1024)"></circle><circle r="25" cx="1601.28" cy="88.25" fill="url(#SvgjsRadialGradient1024)"></circle><circle r="25" cx="1562.35" cy="377.18" fill="url(#SvgjsRadialGradient1024)"></circle><circle r="5" cx="-38.46" cy="488.7" fill="#8b9ad9"></circle><circle r="5" cx="-45.53" cy="698.8" fill="#8b9ad9"></circle><circle r="5" cx="43.7" cy="637.74" fill="#8b9ad9"></circle><circle r="5" cx="217.38" cy="508.85" fill="#8b9ad9"></circle><circle r="5" cx="387.14" cy="543.95" fill="#8b9ad9"></circle><circle r="5" cx="488.27" cy="642.78" fill="#8b9ad9"></circle><circle r="5" cx="707.39" cy="522.27" fill="#8b9ad9"></circle><circle r="5" cx="676.86" cy="657.18" fill="#8b9ad9"></circle><circle r="5" cx="828.67" cy="395.42" fill="#8b9ad9"></circle><circle r="5" cx="834.18" cy="550.18" fill="#8b9ad9"></circle><circle r="5" cx="795.23" cy="637.52" fill="#8b9ad9"></circle><circle r="5" cx="947.41" cy="379.08" fill="#8b9ad9"></circle><circle r="5" cx="978.29" cy="701.01" fill="#8b9ad9"></circle><circle r="5" cx="1116.62" cy="366.66" fill="#8b9ad9"></circle><circle r="5" cx="1161.67" cy="501.47" fill="#8b9ad9"></circle><circle r="5" cx="1269.38" cy="72.9" fill="#8b9ad9"></circle><circle r="5" cx="1290.99" cy="187.59" fill="#8b9ad9"></circle><circle r="5" cx="1277.81" cy="342.31" fill="#8b9ad9"></circle><circle r="5" cx="1303.89" cy="505.77" fill="#8b9ad9"></circle><circle r="5" cx="1310.41" cy="697.41" fill="#8b9ad9"></circle><circle r="5" cx="1433.92" cy="-97.69" fill="#8b9ad9"></circle><circle r="5" cx="1444.69" cy="110.78" fill="#8b9ad9"></circle><circle r="5" cx="1411.12" cy="229.46" fill="#8b9ad9"></circle><circle r="5" cx="1436.39" cy="523.48" fill="#8b9ad9"></circle><circle r="5" cx="1585.15" cy="-61.89" fill="#8b9ad9"></circle><circle r="5" cx="1541.74" cy="215.29" fill="#8b9ad9"></circle><circle r="5" cx="1589.6" cy="539.58" fill="#8b9ad9"></circle><circle r="5" cx="1558.84" cy="704.56" fill="#8b9ad9"></circle></g><defs><mask id="SvgjsMask1022"><rect width="1440" height="560" fill="#ffffff"></rect></mask><linearGradient x1="15.28%" y1="-39.29%" x2="84.72%" y2="139.29%" gradientUnits="userSpaceOnUse" id="SvgjsLinearGradient1023"><stop stop-color="#0e2a47" offset="0"></stop><stop stop-color="#00459e" offset="1"></stop></linearGradient><radialGradient id="SvgjsRadialGradient1024"><stop stop-color="#ffffff" offset="0.1"></stop><stop stop-color="#1735b3" offset="0.2"></stop><stop stop-color="rgba(23, 53, 179, 0)" offset="1"></stop></radialGradient></defs></svg>